<?xml version="1.0" encoding="iso-8859-1"?>
<!-- Generator: Adobe Illustrator 19.0.0, SVG Export Plug-In . SVG Version: 6.00 Build 0)  -->
<svg version="1.1" id="Layer_1" xmlns="http://www.w3.org/2000/svg" xmlns:xlink="http://www.w3.org/1999/xlink" x="0px" y="0px"
	 viewBox="0 0 512.001 512.001" style="enable-background:new 0 0 512.001 512.001;" xml:space="preserve">
<path style="fill:#6C489C;" d="M408.435,383.016l-68.408-68.408c63.582-74.919,60.027-187.347-10.686-258.059
	c-67.444-67.446-174.12-75.506-247.444-19.082C61.786,52.943,59.672,56.548,59.672,56.548c-74.467,74.467-74.467,195.201,0,269.668
	c68.519,68.519,176.207,73.986,250.984,16.413l69.082,69.082L408.435,383.016z"/>
<path style="fill:#52D6C6;" d="M505.401,470.943l-38.269,38.269c-3.661,3.661-9.596,3.661-13.257,0l-87.845-87.844
	c-3.661-3.661-3.661-9.596,0-13.257l38.269-38.269c3.661-3.661,9.596-3.661,13.257,0l87.844,87.844
	C509.062,461.348,509.062,467.284,505.401,470.943z"/>
<path style="opacity:0.1;enable-background:new    ;" d="M491.948,444.244l-24.871,24.871c-3.631,3.631-9.517,3.631-13.147,0
	l-74.446-74.446l-13.508,13.508c-3.631,3.631-3.631,9.518,0,13.147l87.954,87.954c3.631,3.631,9.517,3.631,13.147,0l38.379-38.379
	c3.631-3.631,3.631-9.518,0-13.147L491.948,444.244z"/>
<g>
	<circle style="fill:#FFFFFF;" cx="194.51" cy="191.38" r="153.91"/>
	<path style="opacity:0.35;fill:#FFFFFF;enable-background:new    ;" d="M58.838,263.66c6.957,12.964,15.896,25.145,26.836,36.084
		c11.437,11.437,24.229,20.692,37.857,27.777l207.585-207.585c-7.085-13.628-16.34-26.42-27.777-37.857
		C292.4,71.14,280.219,62.2,267.255,55.243L58.838,263.66z"/>
</g>
<path style="opacity:0.1;enable-background:new    ;" d="M329.851,56.344c-8.514-8.514-17.654-16.078-27.273-22.689
	c50.943,74.26,43.435,176.559-22.545,242.539c-65.956,65.956-168.201,73.483-242.454,22.603
	c6.566,9.582,14.092,18.703,22.603,27.214c68.396,68.395,175.816,73.963,250.577,16.72l23.579,23.579l28.697-28.696l-22.823-22.823
	C404.134,239.873,400.685,127.178,329.851,56.344z"/>
<path style="fill:#FDC00F;" d="M171.177,247.185c-14.381-22.525-30.091-50.794-30.091-66.793c0-29.503,23.917-53.42,53.42-53.42
	s53.42,23.917,53.42,53.42s-53.42,100.725-53.42,100.725l-5.267-7.476L171.177,247.185z"/>
<path style="fill:#E8A600;" d="M194.506,196.607c-4.279,0-7.747-3.468-7.747-7.747v-21.879c0-4.279,3.468-7.747,7.747-7.747
	c4.279,0,7.747,3.468,7.747,7.747v21.879C202.253,193.139,198.785,196.607,194.506,196.607z"/>
<g>
</g>
<g>
</g>
<g>
</g>
<g>
</g>
<g>
</g>
<g>
</g>
<g>
</g>
<g>
</g>
<g>
</g>
<g>
</g>
<g>
</g>
<g>
</g>
<g>
</g>
<g>
</g>
<g>
</g>
</svg>
